# xmcd
#
# Track frame offsets:
#	150
#	8542
#	29630
#	51785
#	87727
#	105835
#	147210
#	159445
#	172582
#	177710
#	196012
#	208497
#	227055
#
# Disc length: 3300 seconds
#
# Revision: 0
# Processed by: cddbd v1.5.2PL0 Copyright (c) Steve Scherf et al.
# Submitted via: audiograbber 1.83.01
#
DISCID=a60ce20d
DTITLE=Stevie Ray Vaughan - Couldn't Stand the Weather
DYEAR=1984
DGENRE=Blues
TTITLE0=Scuttle Buttin'
TTITLE1=Couldn't Stand The Weather
TTITLE2=The Things (That) I Used To Do
TTITLE3=Voodoo Chile (Slight Return)
TTITLE4=Cold Shot
TTITLE5=Tin Pan Alley (aka Roughest Place In Town)
TTITLE6=Honey Bee
TTITLE7=Stang's Swang
TTITLE8=SRV Speaks
TTITLE9=Hide Away
TTITLE10=Look At Little Sister
TTITLE11=Give Me Back My Wig
TTITLE12=Come On (Pt. III)
EXTD=
EXTT0=
EXTT1=
EXTT2=
EXTT3=
EXTT4=
EXTT5=
EXTT6=
EXTT7=
EXTT8=
EXTT9=
EXTT10=
EXTT11=
EXTT12=
PLAYORDER=
